<?xml version="1.0" encoding="UTF-8" standalone="no"?>
<!DOCTYPE svg PUBLIC "-//W3C//DTD SVG 1.1//EN" "http://www.w3.org/Graphics/SVG/1.1/DTD/svg11.dtd">
<svg width="100%" height="100%" viewBox="0 0 100 125" version="1.1" xmlns="http://www.w3.org/2000/svg" xmlns:xlink="http://www.w3.org/1999/xlink" xml:space="preserve" xmlns:serif="http://www.serif.com/" style="fill-rule:evenodd;clip-rule:evenodd;stroke-linejoin:round;stroke-miterlimit:2;">
    <g transform="matrix(1.09267,0,0,1.09267,-5.49057,8.80776)">
        <path d="M49.45,85.4C49.45,80.007 45.013,75.57 39.62,75.57C34.227,75.57 29.79,80.007 29.79,85.4C29.79,90.793 34.227,95.23 39.62,95.23C45.011,95.225 49.445,90.791 49.45,85.4ZM35.79,85.4C35.79,83.299 37.519,81.57 39.62,81.57C41.721,81.57 43.45,83.299 43.45,85.4C43.45,87.501 41.721,89.23 39.62,89.23C37.521,89.225 35.795,87.499 35.79,85.4Z" style="fill-rule:nonzero;"/>
    </g>
    <g transform="matrix(1.09267,0,0,1.09267,-5.49057,8.80776)">
        <path d="M90.63,85.4C90.63,80.007 86.193,75.57 80.8,75.57C75.407,75.57 70.97,80.007 70.97,85.4C70.97,90.793 75.407,95.23 80.8,95.23C86.191,95.225 90.625,90.791 90.63,85.4ZM77,85.4C77,83.299 78.729,81.57 80.83,81.57C82.931,81.57 84.66,83.299 84.66,85.4C84.66,87.501 82.931,89.23 80.83,89.23C78.731,89.225 77.005,87.499 77,85.4Z" style="fill-rule:nonzero;"/>
    </g>
    <g transform="matrix(1.09267,0,0,1.09267,-5.49057,8.80776)">
        <path d="M90.82,66.21L32.44,66.21L31.82,60.84L77.61,56C83.554,55.373 88.335,50.724 89.13,44.8L92.13,22.71C92.148,22.577 92.157,22.444 92.157,22.31C92.157,20.664 90.803,19.31 89.157,19.31C89.148,19.31 89.139,19.31 89.13,19.31L27.05,19.31L25.68,7.42C25.507,5.905 24.205,4.75 22.68,4.76L9.18,4.76C7.534,4.76 6.18,6.114 6.18,7.76C6.18,9.406 7.534,10.76 9.18,10.76L20,10.76L26.76,69.55C26.933,71.065 28.235,72.22 29.76,72.21L90.82,72.21C92.466,72.21 93.82,70.856 93.82,69.21C93.82,67.564 92.466,66.21 90.82,66.21ZM27.74,25.33L85.69,25.33L83.19,44C82.749,47.18 80.173,49.668 76.98,50L31.14,54.88L27.74,25.33Z" style="fill-rule:nonzero;"/>
    </g>
</svg>
